<svg id="Layer_1" enable-background="new 0 0 512 512" height="512" viewBox="0 0 512 512" width="512" xmlns="http://www.w3.org/2000/svg"><g><path d="m512 132v248c0 41.91-34.09 76-76 76h-360c-41.91 0-76-34.09-76-76v-248c0-41.91 34.09-76 76-76h360c41.91 0 76 34.09 76 76z" fill="#b59f89"/><path d="m512 200v112h-119.151c-30.732 0-56.376-24.405-56.843-55.134-.474-31.275 24.826-56.866 55.994-56.866z" fill="#a18b76"/><path d="m512 132v248c0 41.91-34.09 76-76 76h-32c41.91 0 76-34.09 76-76v-248c0-41.91-34.09-76-76-76h32c41.91 0 76 34.09 76 76z" fill="#a18b76"/><path d="m480 200h32v112h-32z" fill="#8d7762"/></g></svg>